<svg xmlns="http://www.w3.org/2000/svg" width="180" height="48" viewBox="0 0 180 48" role="img" aria-label="Kidgas">
  <defs>
    <linearGradient id="g" x1="0" y1="0" x2="1" y2="1">
      <stop offset="0" stop-color="#ff3d00"/>
      <stop offset="1" stop-color="#ffb300"/>
    </linearGradient>
    <filter id="s" x="-10%" y="-20%" width="120%" height="140%">
      <feDropShadow dx="0" dy="1" stdDeviation="1.2" flood-color="#000" flood-opacity=".18"/>
    </filter>
  </defs>
  <g filter="url(#s)">
    <path d="M18 8c6 4 9 9 9 15 0 7-5 13-13 13S1 30 1 23c0-6 4-10 8-12 0 6 4 8 7 8 0-4 1-8 2-11z" fill="url(#g)"/>
    <path d="M12 22c0 3 2 5 5 5 3 0 5-2 5-5 0-2-1-4-3-5 0 2-2 4-4 4-2 0-3-1-3-4-1 1-0 3 0 5z" fill="#fff" opacity=".9"/>
  </g>
  <text x="38" y="32" font-family="system-ui, -apple-system, Segoe UI, Roboto, Arial, sans-serif" font-size="26" font-weight="800" fill="#0f172a">Kidgas</text>
</svg>